<svg version="1.1" id="Layer_1" xmlns="http://www.w3.org/2000/svg" xmlns:xlink="http://www.w3.org/1999/xlink" x="0px" y="0px"
	 width="100%" viewBox="0 0 534 534" enable-background="new 0 0 534 534" xml:space="preserve">
<path fill="#AE9580" opacity="1.000000" stroke="none" 
	d="
M157.315491,63.312805 
	C178.800705,54.244205 200.840897,48.500957 223.464279,45.160683 
	C246.516235,41.757130 269.808380,40.938946 293.018890,42.170853 
	C324.868408,43.861290 356.060608,49.640461 385.523895,62.388882 
	C404.885590,70.766449 422.839722,81.525917 439.006104,95.348549 
	C461.686066,114.740456 479.148590,138.029755 492.195709,164.644730 
	C503.618805,187.946915 510.969849,212.592850 515.122009,238.253082 
	C518.179077,257.145355 519.928833,276.134277 518.881226,295.192566 
	C516.836487,332.393890 507.785645,367.629944 487.935089,399.687469 
	C478.638428,414.701111 468.776276,429.347412 455.347504,440.826721 
	C444.590088,450.022552 432.995117,458.472321 420.900879,465.819519 
	C399.171326,479.020203 374.967682,486.258362 350.122009,490.612152 
	C333.730988,493.484375 317.006256,494.725189 300.373901,495.864197 
	C285.965363,496.850952 271.448364,497.406158 257.028778,496.855835 
	C219.110687,495.408813 181.454422,491.678162 145.417938,478.638641 
	C123.931152,470.863831 104.104279,460.165161 86.546761,445.222443 
	C67.963303,429.406464 53.886745,410.204132 41.645100,389.356689 
	C30.056978,369.622192 23.972628,348.070007 20.240993,325.781189 
	C18.798754,317.166748 18.427225,308.337311 18.078859,299.585480 
	C17.724884,290.692841 17.995987,281.775116 18.001518,272.868378 
	C18.020370,242.514832 24.478428,213.453445 35.859425,185.442398 
	C48.805958,153.578247 68.019241,125.981148 93.600815,103.003731 
	C112.364410,86.150215 133.664658,73.159599 157.315491,63.312805 
M487.930664,282.201630 
	C487.331085,271.915649 487.167389,261.582275 486.055786,251.351929 
	C481.456635,209.025497 465.144196,172.580612 432.087372,144.504883 
	C404.392609,120.983269 374.257874,115.073334 340.883850,131.035553 
	C328.421173,136.996262 316.111847,143.281235 303.787750,149.527145 
	C284.668304,159.216965 265.396637,160.712799 245.748825,151.096146 
	C232.888535,144.801636 220.064774,138.412842 207.019165,132.521286 
	C187.546326,123.727127 167.236984,119.882072 146.368713,126.413208 
	C115.716980,136.006271 92.318314,155.410095 75.312454,182.375244 
	C56.951172,211.489609 51.131748,243.976624 51.125111,277.833801 
	C51.124901,278.907928 51.696606,279.982208 51.674896,281.818146 
	C51.780754,289.238800 51.530670,296.685028 52.061676,304.075134 
	C53.449436,323.389038 58.717068,341.668518 68.038742,358.664093 
	C70.036606,362.306671 73.005821,365.416473 75.702194,369.512970 
	C77.805031,372.702850 79.805618,375.965881 82.026527,379.071320 
	C104.363876,410.305267 132.735016,433.844818 168.986526,447.420197 
	C196.560577,457.746094 225.303162,461.709167 254.468277,462.813812 
	C281.773285,463.847961 308.979340,462.224915 335.878540,457.003754 
	C371.932770,450.005646 404.352722,435.654480 430.965088,409.696259 
	C443.261414,397.702209 454.424011,384.765869 463.810547,369.754974 
	C466.541107,365.837311 469.786102,362.179352 471.916840,357.958832 
	C483.782135,334.456055 488.011627,309.244934 487.930664,282.201630 
z"/>
<path fill="#FEEAC7" opacity="1.000000" stroke="none" 
	d="
M463.180115,369.894409 
	C454.424011,384.765869 443.261414,397.702209 430.965088,409.696259 
	C404.352722,435.654480 371.932770,450.005646 335.878540,457.003754 
	C308.979340,462.224915 281.773285,463.847961 254.468277,462.813812 
	C225.303162,461.709167 196.560577,457.746094 168.986526,447.420197 
	C132.735016,433.844818 104.363876,410.305267 82.026527,379.071320 
	C79.805618,375.965881 77.805031,372.702850 75.814499,368.860352 
	C92.650665,347.456116 110.470284,327.763916 132.331223,312.241394 
	C141.368454,305.824463 150.967865,300.199249 160.698196,294.135834 
	C173.625992,292.803894 183.178879,286.826935 188.720230,275.459686 
	C195.457550,261.639130 195.324493,247.449219 188.852982,233.586914 
	C183.046844,221.149902 170.312958,214.003326 157.291885,215.052963 
	C148.896973,215.729675 142.355637,220.161392 135.839996,225.231064 
	C135.389450,225.490707 135.203690,225.763489 135.015915,226.022598 
	C135.013916,226.008911 135.042862,226.023010 134.675049,226.005524 
	C103.635681,239.507050 75.792458,257.253326 52.001694,281.056396 
	C51.696606,279.982208 51.124901,278.907928 51.125111,277.833801 
	C51.131748,243.976624 56.951172,211.489609 75.312454,182.375244 
	C92.318314,155.410095 115.716980,136.006271 146.368713,126.413208 
	C167.236984,119.882072 187.546326,123.727127 207.019165,132.521286 
	C220.064774,138.412842 232.888535,144.801636 245.748825,151.096146 
	C265.396637,160.712799 284.668304,159.216965 303.787750,149.527145 
	C316.111847,143.281235 328.421173,136.996262 340.883850,131.035553 
	C374.257874,115.073334 404.392609,120.983269 432.087372,144.504883 
	C465.144196,172.580612 481.456635,209.025497 486.055786,251.351929 
	C487.167389,261.582275 487.331085,271.915649 487.611877,282.605103 
	C473.020935,272.651093 458.981903,261.950470 444.402313,252.045517 
	C432.891144,244.225143 420.715179,237.383377 408.629028,229.851807 
	C406.643555,227.429749 404.911652,225.221115 403.075562,223.102753 
	C390.307220,208.371063 368.254486,208.676453 355.305847,223.226196 
	C339.198608,241.325134 341.874664,286.131287 376.900940,291.487976 
	C388.245941,300.137909 400.219696,307.620483 410.351227,317.076782 
	C428.544373,334.057465 445.631073,352.223602 463.180115,369.894409 
M288.102570,346.079285 
	C287.584076,341.857208 289.059784,338.398468 291.729553,335.134949 
	C300.047974,324.966583 308.412384,314.824036 316.368256,304.374023 
	C324.825409,293.265564 324.540497,291.820251 313.760071,282.567810 
	C298.812469,269.738831 281.094086,266.204559 262.051636,267.836151 
	C242.744675,269.490417 227.611694,278.716064 215.657471,293.976929 
	C216.932037,295.696716 217.944458,297.194672 219.087982,298.584808 
	C227.967819,309.379791 237.166611,319.930542 245.622910,331.046631 
	C248.915253,335.374481 250.551712,340.962067 252.186920,346.494476 
	C238.057983,342.932678 223.709961,340.048523 209.875534,335.575836 
	C200.320770,332.486725 191.426193,327.303619 182.332672,322.859619 
	C177.024689,320.265625 173.369965,320.403503 170.670731,323.869812 
	C167.967896,327.340759 168.517700,330.861694 172.496964,335.407196 
	C173.373230,336.408173 174.258041,337.408661 175.213135,338.332642 
	C210.189148,372.170166 251.921997,383.375946 299.176758,374.337677 
	C326.745575,369.064606 350.175995,355.644562 369.245667,334.880402 
	C372.261536,331.596558 373.443390,327.899536 370.559143,324.080017 
	C367.714539,320.312958 363.863312,320.028717 359.877167,322.297028 
	C337.525116,335.016449 313.668793,343.333740 288.102570,346.079285 
z"/>
<path fill="#5C6268" opacity="1.000000" stroke="none" 
	d="
M51.838295,281.437256 
	C75.792458,257.253326 103.635681,239.507050 134.662033,226.360229 
	C128.132034,237.078049 125.361816,248.223114 126.827339,260.768250 
	C128.914917,278.638214 141.190613,293.515808 160.311584,294.213928 
	C150.967865,300.199249 141.368454,305.824463 132.331223,312.241394 
	C110.470284,327.763916 92.650665,347.456116 75.727188,368.489716 
	C73.005821,365.416473 70.036606,362.306671 68.038742,358.664093 
	C58.717068,341.668518 53.449436,323.389038 52.061676,304.075134 
	C51.530670,296.685028 51.780754,289.238800 51.838295,281.437256 
z"/>
<path fill="#5D6268" opacity="1.000000" stroke="none" 
	d="
M408.834442,230.106979 
	C420.715179,237.383377 432.891144,244.225143 444.402313,252.045517 
	C458.981903,261.950470 473.020935,272.651093 487.635132,283.079620 
	C488.011627,309.244934 483.782135,334.456055 471.916840,357.958832 
	C469.786102,362.179352 466.541107,365.837311 463.495331,369.824707 
	C445.631073,352.223602 428.544373,334.057465 410.351227,317.076782 
	C400.219696,307.620483 388.245941,300.137909 377.362183,291.417419 
	C388.425659,291.240509 397.504333,287.364258 404.213959,278.886719 
	C409.936401,271.656372 413.167480,263.069122 412.744690,253.938614 
	C412.374878,245.951508 410.207642,238.047623 408.834442,230.106979 
z"/>
<path fill="#020706" opacity="1.000000" stroke="none" 
	d="
M252.942429,345.975830 
	C250.551712,340.962067 248.915253,335.374481 245.622910,331.046631 
	C237.166611,319.930542 227.967819,309.379791 219.087982,298.584808 
	C217.944458,297.194672 216.932037,295.696716 215.657471,293.976929 
	C227.611694,278.716064 242.744675,269.490417 262.051636,267.836151 
	C281.094086,266.204559 298.812469,269.738831 313.760071,282.567810 
	C324.540497,291.820251 324.825409,293.265564 316.368256,304.374023 
	C308.412384,314.824036 300.047974,324.966583 291.729553,335.134949 
	C289.059784,338.398468 287.584076,341.857208 287.698883,346.527161 
	C285.819885,347.150574 284.348877,347.417358 282.868561,347.487030 
	C272.845764,347.958618 262.780365,349.184662 252.942429,345.975830 
z"/>
<path fill="#442D0F" opacity="1.000000" stroke="none" 
	d="
M252.564667,346.235168 
	C262.780365,349.184662 272.845764,347.958618 282.868561,347.487030 
	C284.348877,347.417358 285.819885,347.150574 287.739197,346.946381 
	C313.668793,343.333740 337.525116,335.016449 359.877167,322.297028 
	C363.863312,320.028717 367.714539,320.312958 370.559143,324.080017 
	C373.443390,327.899536 372.261536,331.596558 369.245667,334.880402 
	C350.175995,355.644562 326.745575,369.064606 299.176758,374.337677 
	C251.921997,383.375946 210.189148,372.170166 175.213135,338.332642 
	C174.258041,337.408661 173.373230,336.408173 172.496964,335.407196 
	C168.517700,330.861694 167.967896,327.340759 170.670731,323.869812 
	C173.369965,320.403503 177.024689,320.265625 182.332672,322.859619 
	C191.426193,327.303619 200.320770,332.486725 209.875534,335.575836 
	C223.709961,340.048523 238.057983,342.932678 252.564667,346.235168 
z"/>
<path fill="#432C0E" opacity="1.000000" stroke="none" 
	d="
M408.629028,229.851807 
	C410.207642,238.047623 412.374878,245.951508 412.744690,253.938614 
	C413.167480,263.069122 409.936401,271.656372 404.213959,278.886719 
	C397.504333,287.364258 388.425659,291.240509 377.160706,291.139526 
	C341.874664,286.131287 339.198608,241.325134 355.305847,223.226196 
	C368.254486,208.676453 390.307220,208.371063 403.075562,223.102753 
	C404.911652,225.221115 406.643555,227.429749 408.629028,229.851807 
M368.588165,227.696121 
	C367.429749,228.330658 366.151855,228.814713 365.132477,229.624268 
	C358.686127,234.743591 358.466614,244.568008 364.577637,248.348389 
	C369.187866,251.200333 373.154114,249.745392 376.840942,246.692642 
	C381.230438,243.058060 382.915405,237.258820 381.036133,232.970276 
	C378.826965,227.928955 375.923676,226.543884 368.588165,227.696121 
z"/>
<path fill="#432C0E" opacity="1.000000" stroke="none" 
	d="
M160.698181,294.135803 
	C141.190613,293.515808 128.914917,278.638214 126.827339,260.768250 
	C125.361816,248.223114 128.132034,237.078049 135.029846,226.377731 
	C135.042862,226.023010 135.013916,226.008911 135.267426,226.018814 
	C135.715561,225.767227 135.910172,225.505722 136.104782,225.244217 
	C142.355637,220.161392 148.896973,215.729675 157.291885,215.052963 
	C170.312958,214.003326 183.046844,221.149902 188.852982,233.586914 
	C195.324493,247.449219 195.457550,261.639130 188.720230,275.459686 
	C183.178879,286.826935 173.625992,292.803894 160.698181,294.135803 
M162.076202,237.828278 
	C160.615311,231.716812 157.905304,229.601440 152.010574,229.971237 
	C146.864380,230.294098 141.684464,235.580582 141.007019,241.201187 
	C140.328445,246.831024 142.554611,250.149765 147.442596,252.130142 
	C154.149109,254.847305 163.544861,246.821243 162.076202,237.828278 
z"/>
<path fill="#5C6268" opacity="1.000000" stroke="none" 
	d="
M135.839996,225.231064 
	C135.910172,225.505722 135.715561,225.767227 135.269440,226.032501 
	C135.203690,225.763489 135.389450,225.490707 135.839996,225.231064 
z"/>
<path fill="#885F24" opacity="1.000000" stroke="none" 
	d="
M368.956787,227.539764 
	C375.923676,226.543884 378.826965,227.928955 381.036133,232.970276 
	C382.915405,237.258820 381.230438,243.058060 376.840942,246.692642 
	C373.154114,249.745392 369.187866,251.200333 364.577637,248.348389 
	C358.466614,244.568008 358.686127,234.743591 365.132477,229.624268 
	C366.151855,228.814713 367.429749,228.330658 368.956787,227.539764 
z"/>
<path fill="#885F24" opacity="1.000000" stroke="none" 
	d="
M162.083298,238.248260 
	C163.544861,246.821243 154.149109,254.847305 147.442596,252.130142 
	C142.554611,250.149765 140.328445,246.831024 141.007019,241.201187 
	C141.684464,235.580582 146.864380,230.294098 152.010574,229.971237 
	C157.905304,229.601440 160.615311,231.716812 162.083298,238.248260 
z"/>
</svg>